<svg height="512pt" viewBox="0 0 512 512" width="512pt" xmlns="http://www.w3.org/2000/svg"><path d="m512 256c0 141.386719-114.613281 256-256 256s-256-114.613281-256-256 114.613281-256 256-256 256 114.613281 256 256zm0 0" fill="#414952"/><path d="m512 256c0-.597656-.019531-1.191406-.023438-1.789062l-107.601562-107.605469-5.382812 7.332031-55.363282-55.585938-37.839844 57.46875-85.007812-85.007812-90.28125 89.9375-9.179688 233.808594 116.808594 116.808594c5.90625.410156 11.863282.632812 17.871094.632812 141.386719 0 256-114.613281 256-256zm0 0" fill="#333940"/><path d="m365.871094 249.496094c32.390625 0 58.648437-26.257813 58.648437-58.648438s-26.257812-58.648437-58.648437-58.648437c-1.582032 0-3.152344.066406-4.703125.1875-6.105469-31.554688-33.875-55.386719-67.214844-55.386719-25.964844 0-48.550781 14.453125-60.15625 35.753906-1.695313-.125-3.402344-.191406-5.125-.191406-37.816406 0-68.46875 30.652344-68.46875 68.464844 0 37.816406 30.652344 68.46875 68.46875 68.46875zm0 0" fill="#4a7aff"/><path d="m365.871094 132.199219c-1.582032 0-3.152344.066406-4.703125.1875-6.105469-31.554688-33.875-55.386719-67.214844-55.386719-.183594 0-.363281.007812-.546875.011719v172.484375h72.464844c32.394531 0 58.652344-26.257813 58.652344-58.648438-.003907-32.390625-26.261719-58.648437-58.652344-58.648437zm0 0" fill="#2864f0"/><path d="m317.644531 307.945312c-76.414062 0-138.355469-61.941406-138.355469-138.351562 0-38.695312 15.890626-73.671875 41.492188-98.78125-71.773438 16.886719-125.203125 81.332031-125.203125 158.257812 0 89.796876 72.789063 162.585938 162.582031 162.585938 76.929688 0 141.375-53.429688 158.261719-125.203125-25.109375 25.601563-60.085937 41.492187-98.777344 41.492187zm0 0" fill="#fff"/><path d="m317.644531 307.945312c-42.257812 0-80.082031-18.949218-105.460937-48.808593l-76.664063 76.667969c29.804688 34.21875 73.699219 55.851562 122.644531 55.851562 76.929688 0 141.371094-53.429688 158.261719-125.203125-25.113281 25.601563-60.089843 41.492187-98.78125 41.492187zm0 0" fill="#e9edf5"/><path d="m277.570312 406.816406c28.320313 0 51.277344-22.957031 51.277344-51.277344 0-28.320312-22.957031-51.277343-51.277344-51.277343-1.386718 0-2.757812.054687-4.113281.164062-5.339843-27.589843-29.617187-48.425781-58.765625-48.425781-22.703125 0-42.449218 12.636719-52.597656 31.257812-1.480469-.109374-2.976562-.167968-4.480469-.167968-33.0625 0-59.863281 26.800781-59.863281 59.863281s26.800781 59.863281 59.863281 59.863281zm0 0" fill="#65b1fc"/><path d="m277.570312 304.261719c-1.386718 0-2.757812.054687-4.113281.164062-5.3125-27.464843-29.398437-48.230469-58.371093-48.417969v150.808594h62.484374c28.320313 0 51.277344-22.957031 51.277344-51.277344 0-28.320312-22.957031-51.277343-51.277344-51.277343zm0 0" fill="#4a98f7"/></svg>