<svg height="512pt" viewBox="0 0 512 512" width="512pt" xmlns="http://www.w3.org/2000/svg"><path d="m512 256c0 141.386719-114.613281 256-256 256s-256-114.613281-256-256 114.613281-256 256-256 256 114.613281 256 256zm0 0" fill="#19cffc"/><path d="m168.671875 147.460938-21.210937 21.210937 278.628906 278.632813c7.476562-6.652344 14.5625-13.738282 21.214844-21.214844zm0 0" fill="#4ab8f7"/><path d="m511.035156 233.851562-105.835937-105.835937-34.980469 31.203125-99.21875-99.21875-30 57.5 246.941406 246.941406c15.425782-32.929687 24.058594-69.675781 24.058594-108.441406 0-7.464844-.339844-14.847656-.964844-22.148438zm0 0" fill="#4ab8f7"/><path d="m2.390625 221c-1.5625 11.445312-2.390625 23.125-2.390625 35 0 141.386719 114.613281 256 256 256s256-114.613281 256-256c0-11.875-.828125-23.554688-2.390625-35zm0 0" fill="#ff6155"/><path d="m509.609375 221h-253.964844v290.996094c.117188 0 .234375.003906.355469.003906 141.386719 0 256-114.613281 256-256 0-11.875-.828125-23.554688-2.390625-35zm0 0" fill="#f92814"/><path d="m256 135.128906c-54.304688 0-100.242188 36.574219-115.492188 85.871094h230.980469c-15.246093-49.296875-61.183593-85.871094-115.488281-85.871094zm0 0" fill="#fdba12"/><path d="m256 135.128906c-.117188 0-.238281.007813-.355469.007813v85.863281h115.84375c-15.246093-49.296875-61.183593-85.871094-115.488281-85.871094zm0 0" fill="#ffa300"/><path d="m256 175.332031c-31.703125 0-59.121094 19.0625-72.308594 45.667969h144.617188c-13.1875-26.605469-40.605469-45.667969-72.308594-45.667969zm0 0" fill="#fcda15"/><path d="m256 175.332031c-.117188 0-.238281.007813-.355469.007813v45.660156h72.660157c-13.183594-26.605469-40.601563-45.667969-72.304688-45.667969zm0 0" fill="#ffd400"/><path d="m241 60h30v57.5h-30zm0 0" fill="#fdba12"/><path d="m255.644531 60h15.355469v57.5h-15.355469zm0 0" fill="#ffa300"/><path d="m383.984375 106.796875 21.214844 21.214844-40.660157 40.65625-21.210937-21.210938zm0 0" fill="#ffa300"/><path d="m106.796875 128.015625 21.214844-21.214844 40.65625 40.660157-21.210938 21.210937zm0 0" fill="#fdba12"/><path d="m230.15625 336.085938v113.035156h51.691406v-113.035156h65.175782l-91.378907-90.648438-90.667969 90.648438zm0 0" fill="#fff"/><path d="m281.847656 336.085938h65.175782l-91.378907-90.648438v-.019531 203.703125h26.203125zm0 0" fill="#e9edf5"/></svg>