<svg height="512pt" viewBox="0 0 512 512" width="512pt" xmlns="http://www.w3.org/2000/svg"><path d="m512 256c0 141.386719-114.613281 256-256 256s-256-114.613281-256-256 114.613281-256 256-256 256 114.613281 256 256zm0 0" fill="#ff6155"/><path d="m168.671875 147.460938-21.210937 21.210937 278.628906 278.632813c7.476562-6.652344 14.5625-13.738282 21.214844-21.214844zm0 0" fill="#ff4545"/><path d="m487.941406 364.441406c15.425782-32.929687 24.058594-69.675781 24.058594-108.441406 0-7.464844-.339844-14.847656-.964844-22.148438l-105.835937-105.835937-38.914063 27.269531-95.285156-95.285156-30 57.5zm0 0" fill="#f92814"/><path d="m2.390625 221c-1.5625 11.445312-2.390625 23.125-2.390625 35 0 141.386719 114.613281 256 256 256s256-114.613281 256-256c0-11.875-.828125-23.554688-2.390625-35zm0 0" fill="#4a7aff"/><path d="m509.609375 221h-253.777344v290.996094c.058594 0 .113281.003906.167969.003906 141.386719 0 256-114.613281 256-256 0-11.875-.828125-23.554688-2.390625-35zm0 0" fill="#2864f0"/><path d="m256 135.128906c-54.304688 0-100.242188 36.574219-115.492188 85.871094h230.980469c-15.246093-49.296875-61.183593-85.871094-115.488281-85.871094zm0 0" fill="#fdba12"/><path d="m256 135.128906c-.054688 0-.109375.003906-.167969.003906v85.867188h115.65625c-15.246093-49.296875-61.183593-85.871094-115.488281-85.871094zm0 0" fill="#ffa300"/><path d="m256 175.332031c-31.703125 0-59.121094 19.0625-72.308594 45.667969h144.617188c-13.1875-26.605469-40.605469-45.667969-72.308594-45.667969zm0 0" fill="#fcda15"/><path d="m256 175.332031c-.054688 0-.109375.003907-.167969.003907v45.664062h72.472657c-13.183594-26.605469-40.601563-45.667969-72.304688-45.667969zm0 0" fill="#ffd400"/><path d="m241 60h30v57.5h-30zm0 0" fill="#fdba12"/><path d="m255.832031 60h15.167969v57.5h-15.167969zm0 0" fill="#ffa300"/><path d="m383.984375 106.796875 21.214844 21.214844-40.660157 40.65625-21.210937-21.210938zm0 0" fill="#ffa300"/><path d="m106.796875 128.015625 21.214844-21.214844 40.65625 40.660157-21.210938 21.210937zm0 0" fill="#fdba12"/><path d="m281.847656 375.035156v-113.035156h-51.695312v113.035156h-65.175782l90.855469 90.859375 91.191407-90.859375zm0 0" fill="#fff"/><path d="m347.023438 375.035156h-65.175782v-113.035156h-26.015625v203.894531zm0 0" fill="#e9edf5"/></svg>